<svg xmlns="http://www.w3.org/2000/svg" viewBox="0 0 52 52" id="truck"><path fill="#0096e6" d="M33 12H3c-.55 0-1 .45-1 1v22c0 .55.45 1 1 1h7c.55 0 1-.45 1-1 0-1.65 1.35-3 3-3s3 1.35 3 3c0 .55.45 1 1 1h15c.55 0 1-.45 1-1V13c0-.55-.45-1-1-1zM18.87 33.87c-.03-.12-.06-.24-.1-.36-.14-.47-.35-.91-.63-1.3a3.58 3.58 0 0 0-.29-.39c-.1-.12-.21-.24-.32-.35a2.6 2.6 0 0 0-.35-.32c-.13-.11-.25-.2-.39-.29-.09-.07-.19-.13-.3-.19-.12-.07-.25-.14-.38-.2s-.26-.12-.4-.16c-.2-.08-.4-.14-.6-.18-.09-.02-.18-.04-.27-.05-.11-.03-.23-.04-.35-.05a3.903 3.903 0 0 0-.98 0c-.12.01-.24.02-.35.05-.09.01-.18.03-.27.05-.27.06-.54.14-.8.25-.07.03-.14.06-.2.09-.13.06-.25.13-.38.2-.11.06-.21.12-.3.19-.14.09-.26.18-.39.29-.08.06-.16.13-.23.21-.05.04-.1.09-.14.14-.11.1-.21.21-.3.32-.11.13-.2.25-.29.39-.28.39-.49.83-.63 1.3-.04.12-.07.24-.1.36L9.1 34H4V14h28v20H18.9l-.03-.13z"></path><path fill="#fff" d="M32 14v20H18.9l-.03-.13c-.03-.12-.06-.24-.1-.36-.14-.47-.35-.91-.63-1.3a3.58 3.58 0 0 0-.29-.39c-.1-.12-.21-.24-.32-.35a2.6 2.6 0 0 0-.35-.32c-.13-.11-.25-.2-.39-.29-.09-.07-.19-.13-.3-.19-.12-.07-.25-.14-.38-.2s-.26-.12-.4-.16c-.2-.08-.4-.14-.6-.18-.09-.02-.18-.04-.27-.05-.11-.03-.23-.04-.35-.05a3.903 3.903 0 0 0-.98 0c-.12.01-.24.02-.35.05-.09.01-.18.03-.27.05-.27.06-.54.14-.8.25-.07.03-.14.06-.2.09-.13.06-.25.13-.38.2-.11.06-.21.12-.3.19-.14.09-.26.18-.39.29-.08.06-.16.13-.23.21-.05.04-.1.09-.14.14-.11.1-.21.21-.3.32-.11.13-.2.25-.29.39-.28.39-.49.83-.63 1.3-.04.12-.07.24-.1.36L9.1 34H4V14h28z"></path><path fill="#0096e6" d="M49.97 29.76c-.51-2.1-1.2-4.17-2.05-6.16-.75-1.74-1.64-3.44-2.63-5.06A5.305 5.305 0 0 0 40.75 16H33c-.55 0-1 .45-1 1v18c0 .55.45 1 1 1h4c.55 0 1-.45 1-1 0-1.65 1.35-3 3-3s3 1.35 3 3c0 .55.45 1 1 1h2c.27 0 .52-.11.71-.29l2-2c.18-.19.29-.44.29-.71v-3c0-.08-.01-.16-.03-.24zM48 32.59 46.59 34h-.69c-.13-.65-.39-1.26-.76-1.79a3.58 3.58 0 0 0-.29-.39c-.11-.14-.24-.28-.38-.41a3.58 3.58 0 0 0-.29-.26c-.13-.11-.25-.2-.39-.29-.09-.07-.19-.13-.3-.19-.12-.07-.25-.14-.38-.2a4.37 4.37 0 0 0-1-.34c-.09-.02-.18-.04-.27-.05-.27-.06-.55-.08-.84-.08-.29 0-.57.02-.84.08-.09.01-.18.03-.27.05-.27.06-.54.14-.8.25-.07.03-.14.06-.2.09-.13.06-.25.13-.38.2-.11.06-.21.12-.3.19-.14.09-.26.18-.39.29-.08.06-.16.13-.23.21-.05.04-.1.09-.14.14-.11.1-.21.21-.3.32-.11.13-.2.25-.29.39-.37.53-.63 1.14-.76 1.79H34V18h6.75c1.16 0 2.22.59 2.83 1.59.88 1.43 1.67 2.93 2.35 4.46.05.11.1.23.15.34.23.55.46 1.1.66 1.66.5 1.33.92 2.69 1.26 4.07v2.47z"></path><path fill="#d0e8f9" d="M48 30.12v2.47L46.59 34h-.69c-.13-.65-.39-1.26-.76-1.79-.08-.13-.18-.26-.29-.39-.11-.14-.24-.28-.38-.41-.09-.1-.19-.18-.29-.26-.13-.11-.25-.2-.39-.29-.09-.07-.19-.13-.3-.19-.12-.07-.25-.14-.38-.2a4.37 4.37 0 0 0-1-.34c-.09-.03-.18-.04-.27-.05-.27-.06-.55-.08-.84-.08-.29 0-.57.02-.84.08-.09.01-.18.02-.27.05-.27.06-.54.14-.8.25a4.549 4.549 0 0 0-.58.29c-.11.06-.21.12-.3.19-.14.08-.27.18-.39.29-.08.06-.16.13-.23.21-.06.04-.11.09-.14.14-.11.1-.21.21-.3.32-.11.13-.2.25-.29.39-.37.53-.63 1.14-.76 1.79H34v-7.95h12.74c.5 1.33.92 2.69 1.26 4.07zM45.93 24.05H34V18h6.75c1.16 0 2.22.59 2.83 1.59.88 1.43 1.67 2.93 2.35 4.46z"></path><path fill="#0096e6" d="m18.9 34-.03-.13c-.03-.12-.06-.24-.1-.36-.14-.47-.35-.91-.63-1.3a3.58 3.58 0 0 0-.29-.39c-.1-.12-.21-.24-.32-.35a2.6 2.6 0 0 0-.35-.32c-.13-.11-.25-.2-.39-.29-.09-.07-.19-.13-.3-.19-.12-.07-.25-.14-.38-.2s-.26-.12-.4-.16c-.2-.08-.4-.14-.6-.18-.09-.02-.18-.04-.27-.05-.11-.03-.23-.04-.35-.05a3.903 3.903 0 0 0-.98 0c-.12.01-.24.02-.35.05-.09.01-.18.03-.27.05-.27.06-.54.14-.8.25-.07.03-.14.06-.2.09-.13.06-.25.13-.38.2-.11.06-.21.12-.3.19-.14.09-.26.18-.39.29-.08.06-.16.13-.23.21-.05.04-.1.09-.14.14-.11.1-.21.21-.3.32-.11.13-.2.25-.29.39-.28.39-.49.83-.63 1.3-.04.12-.07.24-.1.36L9.1 34c-.07.32-.1.66-.1 1a5 5 0 0 0 9.9 1c.07-.32.1-.66.1-1 0-.34-.03-.68-.1-1zM14 38c-1.65 0-3-1.35-3-3s1.35-3 3-3 3 1.35 3 3-1.35 3-3 3z"></path><circle cx="14" cy="35" r="3" fill="#d0e8f9"></circle><path fill="#0096e6" d="M45.9 34c-.13-.65-.39-1.26-.76-1.79a3.58 3.58 0 0 0-.29-.39c-.11-.14-.24-.28-.38-.41a3.58 3.58 0 0 0-.29-.26c-.13-.11-.25-.2-.39-.29-.09-.07-.19-.13-.3-.19-.12-.07-.25-.14-.38-.2a4.37 4.37 0 0 0-1-.34c-.09-.02-.18-.04-.27-.05-.27-.06-.55-.08-.84-.08-.29 0-.57.02-.84.08-.09.01-.18.03-.27.05-.27.06-.54.14-.8.25-.07.03-.14.06-.2.09-.13.06-.25.13-.38.2-.11.06-.21.12-.3.19-.14.09-.26.18-.39.29-.08.06-.16.13-.23.21-.05.04-.1.09-.14.14-.11.1-.21.21-.3.32-.11.13-.2.25-.29.39-.37.53-.63 1.14-.76 1.79-.07.32-.1.66-.1 1a5 5 0 0 0 9.9 1c.07-.32.1-.66.1-1 0-.34-.03-.68-.1-1zM41 38c-1.65 0-3-1.35-3-3s1.35-3 3-3 3 1.35 3 3-1.35 3-3 3z"></path><circle cx="41" cy="35" r="3" fill="#d0e8f9"></circle><path fill="#0096e6" d="M48.41 25.05c0 .55-.44 1-1 1H33c-.55 0-1-.45-1-1s.45-1 1-1h14.41c.56 0 1 .45 1 1z"></path></svg>